<svg width="1400" height="108" viewBox="0 0 1400 108" fill="none" xmlns="http://www.w3.org/2000/svg">
<g clip-path="url(#clip0_25376_27244)">
<path d="M1400 59.1781C1199.27 24.7179 991.92 76.5088 750.06 71.3156C509.78 66.1526 227.35 -3.35142 0 3.22057V39.5124C227.38 32.9002 509.93 102.455 750.29 107.628C992.06 112.831 1199.33 61.1004 1400 95.48V59.1781Z" fill="#D0CFF4"/>
<path d="M1400 71.3156C1199.29 36.8756 991.97 88.6363 750.14 83.433C509.84 78.2701 227.36 8.74587 0 15.3179V39.5124C227.38 32.9002 509.93 102.455 750.29 107.628C992.06 112.831 1199.33 61.1004 1400 95.48V71.3156Z" fill="#7B78FA"/>
<path d="M750.06 71.3056C991.92 76.4987 1199.27 24.7179 1400 59.168V0H0V3.22058C227.35 -3.35141 509.78 66.1426 750.06 71.3056Z" fill="#F9F5F1"/>
<path d="M1400 83.4028C1199.32 48.993 992.02 100.734 750.22 95.5303C509.89 90.3573 227.37 20.823 0 27.4151V39.5124C227.38 32.9002 509.93 102.455 750.29 107.628C992.06 112.831 1199.33 61.1003 1400 95.48V83.4028Z" fill="#543CE7"/>
</g>
<defs>
<clipPath id="clip0_25376_27244">
<rect width="1400" height="108" fill="white"/>
</clipPath>
</defs>
</svg>
