<svg width="18" height="18" viewBox="0 0 18 18" fill="none" xmlns="http://www.w3.org/2000/svg">
<path d="M4.65557 3.15875C6.41341 4.47842 8.30417 7.15418 8.99836 8.59015C9.6926 7.15428 11.5833 4.4784 13.3412 3.15875C14.6095 2.20652 16.6646 1.46974 16.6646 3.81421C16.6646 4.28243 16.3961 7.74752 16.2387 8.31006C15.6914 10.2659 13.6971 10.7647 11.9231 10.4628C15.024 10.9905 15.8128 12.7386 14.1093 14.4868C10.8738 17.8068 9.45902 13.6537 9.09633 12.5896C9.02987 12.3945 8.99877 12.3032 8.99831 12.3809C8.99785 12.3032 8.96676 12.3945 8.9003 12.5896C8.53777 13.6537 7.12298 17.8069 3.88737 14.4868C2.18378 12.7386 2.97258 10.9904 6.07349 10.4628C4.29947 10.7647 2.30514 10.2659 1.75793 8.31006C1.60048 7.74747 1.33203 4.28238 1.33203 3.81421C1.33203 1.46974 3.38716 2.20652 4.65548 3.15875H4.65557Z" fill="white"/>
</svg>
