<svg width="18" height="18" viewBox="0 0 18 18" fill="none" xmlns="http://www.w3.org/2000/svg">
<path fill-rule="evenodd" clip-rule="evenodd" d="M12.0039 2.25003H6.00391C3.93284 2.25003 2.25391 3.92897 2.25391 6.00003V12C2.25391 14.0711 3.93284 15.75 6.00391 15.75H12.0039C14.075 15.75 15.7539 14.0711 15.7539 12V6.00003C15.7539 3.92897 14.075 2.25003 12.0039 2.25003ZM14.4414 12C14.4373 13.3445 13.3484 14.4334 12.0039 14.4375H6.00391C4.65942 14.4334 3.57052 13.3445 3.56641 12V6.00003C3.57052 4.65554 4.65942 3.56665 6.00391 3.56253H12.0039C13.3484 3.56665 14.4373 4.65554 14.4414 6.00003V12ZM12.5664 6.18753C12.9806 6.18753 13.3164 5.85174 13.3164 5.43753C13.3164 5.02332 12.9806 4.68753 12.5664 4.68753C12.1522 4.68753 11.8164 5.02332 11.8164 5.43753C11.8164 5.85174 12.1522 6.18753 12.5664 6.18753ZM9.00391 5.62503C7.13995 5.62503 5.62891 7.13607 5.62891 9.00003C5.62891 10.864 7.13995 12.375 9.00391 12.375C10.8679 12.375 12.3789 10.864 12.3789 9.00003C12.3809 8.10431 12.026 7.24471 11.3926 6.61134C10.7592 5.97797 9.89963 5.62304 9.00391 5.62503ZM6.94141 9.00003C6.94141 10.1391 7.86481 11.0625 9.00391 11.0625C10.143 11.0625 11.0664 10.1391 11.0664 9.00003C11.0664 7.86093 10.143 6.93753 9.00391 6.93753C7.86481 6.93753 6.94141 7.86093 6.94141 9.00003Z" fill="white"/>
</svg>
