<svg width="18" height="18" viewBox="0 0 18 18" fill="none" xmlns="http://www.w3.org/2000/svg">
<path d="M8.89046 2.25009C11.1094 2.2501 12.0673 2.38649 12.3202 2.42392C13.8186 2.64541 15.0828 3.7881 15.2782 5.23837C15.3843 6.31561 15.2925 8.06926 15.2918 8.35751C15.2918 8.44216 15.2792 9.21496 15.2743 9.29697C15.1429 11.3695 13.8509 12.1885 12.493 12.4493C12.4746 12.4548 12.4529 12.4587 12.4315 12.463C11.5705 12.6311 10.6474 12.6757 9.7723 12.7003C9.5632 12.7058 9.35443 12.7052 9.14535 12.7052C8.27533 12.7054 7.40806 12.6025 6.56234 12.3985C6.55795 12.3974 6.55308 12.3976 6.54867 12.3985C6.54433 12.3995 6.54042 12.4016 6.53695 12.4044C6.53337 12.4073 6.53003 12.4109 6.52816 12.4151C6.52629 12.4194 6.52596 12.4242 6.5262 12.4288C6.55011 12.7041 6.60972 12.9756 6.70394 13.2354C6.82135 13.5363 7.23097 14.2578 8.75179 14.2579C9.636 14.2595 10.5177 14.1566 11.3778 13.9513C11.3821 13.9503 11.3871 13.9503 11.3914 13.9513C11.3958 13.9522 11.3996 13.9544 11.4032 13.9571C11.4067 13.9599 11.41 13.9629 11.4119 13.9669C11.4139 13.9708 11.4148 13.9752 11.4149 13.9796V14.9972C11.4147 15.002 11.4132 15.0066 11.411 15.0108C11.4088 15.015 11.406 15.0187 11.4022 15.0216C11.1211 15.2253 10.7384 15.3417 10.4119 15.4454C10.268 15.4908 10.122 15.5302 9.97445 15.5645C8.63215 15.8702 7.23122 15.7968 5.92855 15.3517C4.71163 14.9246 3.46879 13.8771 3.16195 12.6192C2.99814 11.9383 2.88339 11.2461 2.81722 10.5489C2.72152 9.49922 2.71282 8.44667 2.67171 7.39267C2.64289 6.65774 2.66004 5.85654 2.81527 5.13388C3.13807 3.6664 4.46797 2.63941 5.92464 2.42392C6.17748 2.38649 6.65419 2.25009 8.87386 2.25009H8.89046ZM11.034 4.45908C10.3044 4.45911 9.75181 4.74045 9.38363 5.30185L9.02816 5.89755L8.67269 5.30185C8.30448 4.74042 7.75221 4.45908 7.02132 4.45908C6.38987 4.45908 5.88085 4.68082 5.493 5.11337C5.11707 5.54692 4.92957 6.13207 4.92953 6.86826V10.4718H6.35628V6.9747C6.35628 6.23844 6.66659 5.86243 7.28695 5.8624C7.97304 5.8624 8.31722 6.30723 8.31722 7.18466V9.09872H9.73714V7.18466C9.73714 6.3073 10.0804 5.86246 10.7664 5.8624C11.3906 5.8624 11.6971 6.2384 11.6971 6.9747V10.4718H13.1258V6.86826C13.1262 6.13168 12.9379 5.5465 12.5623 5.11337C12.1733 4.68106 11.6647 4.45908 11.034 4.45908Z" fill="white"/>
</svg>
